<?xml version="1.0" standalone="no"?>
<!DOCTYPE svg PUBLIC "-//W3C//DTD SVG 20010904//EN"
 "http://www.w3.org/TR/2001/REC-SVG-20010904/DTD/svg10.dtd">
<svg version="1.0" xmlns="http://www.w3.org/2000/svg"
 width="1280.000000pt" height="1280.000000pt" viewBox="0 0 1280.000000 1280.000000"
 preserveAspectRatio="xMidYMid meet">
<metadata>
Created by potrace 1.15, written by Peter Selinger 2001-2017
</metadata>
<g transform="translate(0.000000,1280.000000) scale(0.100000,-0.100000)"
fill="#000000" stroke="none">
<path d="M5610 12329 c-347 -80 -525 -159 -636 -282 -56 -63 -67 -86 -100
-225 -23 -94 -25 -121 -20 -217 5 -100 9 -145 31 -356 l8 -67 -30 -6 c-64 -14
-159 -127 -222 -264 -14 -28 -27 -52 -31 -52 -4 0 -224 -50 -490 -110 l-483
-110 -141 -68 c-277 -134 -209 -79 -916 -743 -339 -318 -335 -313 -527 -685
l-106 -206 33 -152 33 -152 124 -100 c71 -56 153 -133 191 -179 261 -311 491
-564 556 -615 25 -19 45 -38 46 -42 0 -4 -29 -47 -65 -95 -112 -153 -216 -379
-255 -558 -40 -182 -52 -457 -24 -555 91 -318 118 -445 155 -750 19 -152 16
-542 -6 -855 l-19 -280 -83 -85 c-72 -74 -86 -93 -103 -149 -11 -35 -23 -95
-27 -134 -6 -63 -13 -82 -81 -201 -98 -173 -129 -235 -165 -331 -102 -276
-127 -391 -134 -625 l-6 -175 -88 -109 c-83 -103 -90 -116 -124 -220 -20 -61
-42 -145 -49 -186 -10 -58 -27 -99 -72 -181 -54 -96 -61 -116 -78 -216 -15
-90 -16 -117 -7 -146 26 -76 75 -113 176 -132 l60 -11 6 -153 c6 -148 7 -153
33 -180 37 -39 124 -80 204 -96 272 -56 616 -76 719 -41 61 20 93 55 93 102 0
18 -16 88 -35 156 -35 120 -37 125 -95 183 -32 33 -81 93 -109 134 -59 86 -64
67 50 186 37 39 106 121 153 183 70 91 88 123 97 165 6 29 20 74 31 101 25 62
92 249 168 471 32 94 106 281 163 416 58 135 130 326 162 425 31 98 65 207 77
242 11 35 56 127 101 205 134 237 214 401 227 464 17 85 63 250 108 388 38
114 61 202 98 377 9 43 19 76 23 73 4 -2 114 -165 244 -362 l235 -358 42 -220
c22 -121 45 -244 50 -272 5 -29 18 -86 28 -125 37 -138 105 -450 120 -553 6
-38 13 -115 17 -170 6 -114 22 -223 96 -675 20 -122 22 -166 20 -445 -1 -264
1 -333 19 -465 11 -88 23 -250 27 -376 l6 -221 47 -26 c43 -24 63 -28 206 -37
88 -5 218 -7 289 -4 101 5 154 3 235 -11 120 -20 301 -58 376 -80 l51 -15 7
-59 c37 -324 255 -623 557 -765 147 -69 246 -90 419 -90 119 0 161 4 235 23
105 27 227 81 316 141 89 60 226 201 281 290 95 152 150 346 150 526 l0 93 71
16 c40 9 92 19 117 22 l46 5 46 -70 47 -70 -24 -16 c-30 -20 -38 -47 -27 -90
13 -46 171 -272 200 -285 35 -17 124 -13 189 7 32 10 176 65 321 122 260 103
263 104 285 144 l22 41 300 116 c165 64 449 173 630 244 182 70 404 156 495
192 99 38 253 110 385 180 512 271 1080 575 1087 581 10 10 -345 649 -692
1247 -302 518 -571 962 -903 1490 -156 247 -241 378 -663 1023 l-139 213 -45
-6 c-25 -4 -61 -11 -80 -16 -32 -8 -548 -120 -715 -155 -38 -8 -221 -48 -406
-89 l-336 -74 -278 -135 c-153 -75 -281 -136 -284 -136 -15 1 -156 221 -236
370 -248 463 -530 958 -637 1120 -71 108 -70 107 -243 228 l-60 42 -232 9
-232 9 -65 46 c-85 61 -137 122 -130 152 7 27 -9 110 -43 224 l-25 85 22 68
c21 64 22 80 16 211 -15 326 -54 749 -83 906 l-15 85 50 315 50 315 -20 65
c-26 82 -66 163 -113 224 -35 46 -36 51 -34 119 2 46 -2 72 -9 75 -17 5 -144
191 -140 204 3 8 43 11 129 9 270 -5 297 8 323 156 9 51 30 130 47 175 20 51
31 99 30 126 -1 35 2 42 18 42 10 0 29 8 42 19 l23 19 -36 83 -36 83 28 32
c50 58 60 131 34 247 l-7 29 79 -6 c107 -9 211 -26 255 -41 33 -12 39 -11 125
34 88 45 89 47 88 82 -1 43 -37 118 -79 165 -44 49 -113 65 -326 73 l-176 6
-64 85 c-102 133 -214 215 -362 265 -88 29 -208 40 -277 24z m-110 -4459 c0
-31 86 -197 146 -282 l34 -47 -23 -27 c-22 -26 -25 -26 -75 -15 -32 7 -60 7
-75 2 -30 -12 -49 -57 -45 -107 2 -32 7 -40 26 -42 12 -2 22 -9 22 -17 0 -17
22 -25 69 -25 30 0 40 -5 55 -31 56 -95 122 -131 198 -110 36 10 48 10 73 -3
18 -9 55 -16 91 -16 55 0 62 3 74 25 10 19 18 24 34 18 12 -3 34 -6 49 -4 44
2 180 58 200 81 9 11 25 20 35 20 10 0 24 6 30 12 15 15 268 13 306 -1 39 -16
131 -125 203 -241 52 -86 243 -443 243 -456 0 -1 -33 -5 -72 -9 -40 -3 -154
-15 -253 -25 -643 -68 -988 -100 -995 -93 -4 4 -47 85 -95 178 -156 300 -225
410 -329 522 -54 58 -156 122 -278 174 -65 28 -64 17 -16 164 34 105 50 124
216 257 62 50 117 99 123 109 15 28 29 23 29 -11z m-177 -932 c13 -18 101
-168 194 -333 165 -290 686 -1206 978 -1720 78 -137 274 -482 435 -765 287
-505 427 -752 908 -1596 l240 -422 7 -130 7 -130 -29 -16 c-30 -15 -30 -15
-79 35 -57 59 -164 134 -249 176 -317 158 -691 131 -990 -70 -71 -48 -192
-163 -231 -218 -15 -22 -31 -39 -36 -39 -6 0 -57 44 -115 98 l-105 97 6 126
c5 83 3 149 -5 194 -14 80 -90 243 -188 402 l-63 103 7 142 c4 82 2 241 -5
373 -11 220 -10 234 9 317 21 90 41 368 41 585 0 167 -53 502 -100 633 -65
182 -79 233 -84 305 -16 217 -45 350 -140 640 -24 72 -49 155 -56 185 -7 30
-43 123 -80 205 -37 83 -75 172 -84 199 -22 68 -78 165 -150 260 -33 44 -71
103 -84 129 -22 47 -22 52 -10 158 7 60 15 109 19 109 5 0 19 -15 32 -32z
m2199 -903 c120 -209 218 -385 218 -391 0 -6 -33 -26 -72 -44 -40 -18 -90 -42
-110 -52 l-37 -18 -97 178 c-53 97 -159 290 -235 427 -75 138 -136 252 -134
253 7 7 181 30 215 28 l35 -1 217 -380z m-556 108 c59 -115 124 -239 144 -278
21 -38 79 -150 130 -248 l92 -177 -134 -64 c-74 -35 -143 -66 -154 -69 -16 -6
-33 21 -116 181 -54 103 -172 326 -263 495 -91 170 -165 312 -165 316 0 7 266
47 327 50 31 1 33 -1 139 -206z m-632 42 c23 -44 129 -244 235 -445 106 -201
213 -402 237 -447 l44 -82 -101 -55 c-56 -31 -105 -56 -108 -56 -3 0 -60 96
-126 213 -66 116 -211 372 -322 567 l-203 355 28 7 c31 8 216 26 250 24 18 -1
32 -18 66 -81z"/>
</g>
</svg>
