<svg id="Layer_5" enable-background="new 0 0 64 64" height="512" viewBox="0 0 64 64" width="512" xmlns="http://www.w3.org/2000/svg"><g><path d="m15 11h4v18h16v-2h-14v-18h-6v-8h-14v18h14zm-2 6h-10v-14h10z"/><path d="m15 33h20v-2h-20v-8h-14v18h14zm-2 6h-10v-14h10z"/><path d="m59 29.279-2.456-.818 1.158-2.315-3.848-3.848-2.314 1.157-.819-2.455h-5.441l-.819 2.455-2.314-1.157-3.848 3.848 1.158 2.315-2.457.818v5.441l2.456.818-1.158 2.315 3.848 3.848 2.314-1.157.819 2.456h5.441l.819-2.455 2.314 1.157 3.848-3.848-1.158-2.315 2.457-.818zm-2 4-2.298.766-.168.445c-.048.127-.098.252-.153.375l-.194.433 1.081 2.162-1.809 1.809-2.162-1.081-.433.194c-.125.056-.251.105-.379.155l-.441.169-.765 2.294h-2.559l-.765-2.294-.441-.169c-.128-.05-.255-.1-.379-.155l-.433-.194-2.162 1.081-1.809-1.809 1.081-2.162-.194-.433c-.055-.123-.105-.248-.153-.375l-.168-.445-2.297-.766v-2.559l2.298-.766.168-.445c.048-.127.098-.252.153-.375l.194-.433-1.081-2.162 1.809-1.809 2.162 1.081.433-.194c.125-.056.251-.105.379-.155l.441-.169.765-2.293h2.559l.765 2.294.441.169c.128.05.255.1.379.155l.433.194 2.162-1.081 1.809 1.809-1.081 2.162.194.433c.055.123.105.248.153.375l.168.445 2.297.766z"/><path d="m48 27c-2.757 0-5 2.243-5 5s2.243 5 5 5 5-2.243 5-5-2.243-5-5-5zm0 8c-1.654 0-3-1.346-3-3s1.346-3 3-3 3 1.346 3 3-1.346 3-3 3z"/><path d="m35.586 1-10.586 10.586v13.414h2v-12h10v-10h24v58h-34v-22h-2v24h38v-62zm-7.172 10 6.586-6.586v6.586z"/><path d="m59 5h-20v8h20zm-2 6h-16v-4h16z"/><path d="m29 15h2v2h-2z"/><path d="m33 15h26v2h-26z"/><path d="m59 59v-6h-6v6zm-4-4h2v2h-2z"/><path d="m51 59v-6h-6v6zm-4-4h2v2h-2z"/><path d="m43 59v-6h-6v6zm-4-4h2v2h-2z"/><path d="m29 59h6v-6h-6zm2-4h2v2h-2z"/><path d="m29 49h2v2h-2z"/><path d="m33 49h26v2h-26z"/><path d="m29 45h30v2h-30z"/><path d="m5 49h6v2h-6z"/><path d="m5 53h6v2h-6z"/><path d="m5 57h6v2h-6z"/><path d="m5 27h6v2h-6z"/><path d="m5 31h6v2h-6z"/><path d="m5 35h6v2h-6z"/><path d="m5 5h6v2h-6z"/><path d="m5 9h6v2h-6z"/><path d="m5 13h6v2h-6z"/><path d="m35 35h-16v18h-4v-8h-14v18h14v-8h6v-18h14zm-22 26h-10v-14h10z"/></g></svg>