<svg id="Layer_1" enable-background="new 0 0 512 512" height="512" viewBox="0 0 512 512" width="512" xmlns="http://www.w3.org/2000/svg"><g><path d="m508.181 141.017-248.499-140.051c-2.285-1.288-5.079-1.288-7.364 0l-146.887 82.784c-3.608 2.034-4.885 6.607-2.851 10.216s6.607 4.885 10.216 2.852l143.204-80.709 238.285 134.295-9.245 16.416-225.358-127.01c-2.285-1.288-5.079-1.288-7.364 0l-225.358 127.01-9.245-16.416 64.571-36.392c3.608-2.034 4.885-6.607 2.851-10.216-2.033-3.608-6.606-4.884-10.216-2.851l-71.102 40.072c-3.607 2.033-4.884 6.605-2.853 10.214l16.605 29.486c.977 1.733 2.602 3.008 4.518 3.543 1.919.537 3.967.287 5.7-.69l15.712-8.855v221.506h-12.5c-4.142 0-7.5 3.358-7.5 7.5v33.831c0 4.142 3.358 7.5 7.5 7.5h58.159c4.142 0 7.5-3.358 7.5-7.5s-3.358-7.5-7.5-7.5h-50.659v-18.831h51.285c4.142 0 7.5-3.358 7.5-7.5s-3.358-7.5-7.5-7.5h-31.285v-229.96l197.499-111.308 197.499 111.308v64.46c0 4.142 3.358 7.5 7.5 7.5s7.5-3.358 7.5-7.5v-56.007l15.712 8.855c1.134.639 2.403.966 3.683.966.676 0 1.354-.091 2.017-.276 1.916-.535 3.541-1.81 4.518-3.543l16.605-29.486c2.032-3.607.755-8.179-2.853-10.213z"/><path d="m480.999 396.222h-12.5v-131.141c0-4.142-3.358-7.5-7.5-7.5s-7.5 3.358-7.5 7.5v131.141h-32.546c-4.142 0-7.5 3.358-7.5 7.5s3.358 7.5 7.5 7.5h52.546v18.831h-52.546c-4.142 0-7.5 3.358-7.5 7.5s3.358 7.5 7.5 7.5h60.046c4.142 0 7.5-3.358 7.5-7.5v-33.831c0-4.143-3.358-7.5-7.5-7.5z"/><path d="m366.782 348.529c-1.336-2.334-3.82-3.774-6.509-3.774h-21.242v-26.661c0-4.142-3.358-7.5-7.5-7.5h-146.996c-4.142 0-7.5 3.358-7.5 7.5s3.358 7.5 7.5 7.5h139.496v117.45c-13.237 2.907-23.683 13.345-26.595 26.573h-82.228c-3.443-15.643-17.422-27.384-34.094-27.384s-30.652 11.741-34.095 27.384h-19.472v-144.023h21.913c4.142 0 7.5-3.358 7.5-7.5s-3.358-7.5-7.5-7.5h-29.413c-4.142 0-7.5 3.358-7.5 7.5v159.022c0 4.142 3.358 7.5 7.5 7.5h26.972c3.443 15.643 17.423 27.384 34.095 27.384s30.652-11.741 34.094-27.384h82.228c3.443 15.643 17.423 27.384 34.095 27.384s30.652-11.741 34.095-27.384h26.327c4.142 0 7.5-3.358 7.5-7.5v-69.508c0-1.307-.341-2.591-.991-3.726zm-185.668 148.471c-10.977 0-19.908-8.92-19.908-19.884s8.931-19.884 19.908-19.884 19.907 8.92 19.907 19.884-8.93 19.884-19.907 19.884zm157.917-137.246h16.892l23.096 40.354h-39.988zm-7.5 137.246c-10.977 0-19.907-8.92-19.907-19.884s8.93-19.884 19.907-19.884 19.908 8.92 19.908 19.884-8.931 19.884-19.908 19.884zm52.922-27.384h-18.827c-2.911-13.228-13.357-23.666-26.595-26.573v-27.935h45.422z"/><path d="m177.742 397.605c0 4.142 3.358 7.5 7.5 7.5h62.981l-8.568 8.563c-2.93 2.928-2.931 7.677-.003 10.606 1.464 1.466 3.384 2.198 5.305 2.198 1.918 0 3.837-.732 5.302-2.195l21.38-21.368c1.407-1.406 2.198-3.315 2.198-5.305s-.791-3.898-2.198-5.305l-21.38-21.368c-2.93-2.929-7.679-2.928-10.606.003-2.928 2.93-2.927 7.679.003 10.606l8.568 8.563h-62.981c-4.143.002-7.501 3.36-7.501 7.502z"/><path d="m151.913 276.183v-56.254c0-4.142-3.358-7.5-7.5-7.5h-56.233c-4.142 0-7.5 3.358-7.5 7.5v56.254c0 4.142 3.358 7.5 7.5 7.5h56.233c4.142 0 7.5-3.358 7.5-7.5zm-15-7.5h-41.233v-41.254h13.117v6.987c0 4.142 3.358 7.5 7.5 7.5s7.5-3.358 7.5-7.5v-6.987h13.117v41.254z"/><path d="m173.58 276.183c0 4.142 3.358 7.5 7.5 7.5h56.233c4.142 0 7.5-3.358 7.5-7.5v-56.254c0-4.142-3.358-7.5-7.5-7.5h-56.233c-4.142 0-7.5 3.358-7.5 7.5zm15-48.754h13.117v6.987c0 4.142 3.358 7.5 7.5 7.5s7.5-3.358 7.5-7.5v-6.987h13.117v41.254h-41.234z"/><path d="m266.479 276.183c0 4.142 3.358 7.5 7.5 7.5h56.233c4.142 0 7.5-3.358 7.5-7.5v-56.254c0-4.142-3.358-7.5-7.5-7.5h-56.233c-4.142 0-7.5 3.358-7.5 7.5zm15-48.754h13.117v6.987c0 4.142 3.358 7.5 7.5 7.5s7.5-3.358 7.5-7.5v-6.987h13.117v41.254h-41.233v-41.254z"/><path d="m366.879 283.683h56.233c4.142 0 7.5-3.358 7.5-7.5v-56.254c0-4.142-3.358-7.5-7.5-7.5h-56.233c-4.142 0-7.5 3.358-7.5 7.5v56.254c0 4.142 3.358 7.5 7.5 7.5zm7.5-56.254h13.117v6.987c0 4.142 3.358 7.5 7.5 7.5s7.5-3.358 7.5-7.5v-6.987h13.117v41.254h-41.233v-41.254z"/><path d="m181.08 193.132h56.233c4.142 0 7.5-3.358 7.5-7.5v-56.254c0-4.142-3.358-7.5-7.5-7.5h-56.233c-4.142 0-7.5 3.358-7.5 7.5v56.254c0 4.142 3.358 7.5 7.5 7.5zm7.5-56.254h13.117v6.988c0 4.142 3.358 7.5 7.5 7.5s7.5-3.358 7.5-7.5v-6.988h13.117v41.254h-41.234z"/><path d="m273.979 193.132h56.233c4.142 0 7.5-3.358 7.5-7.5v-56.254c0-4.142-3.358-7.5-7.5-7.5h-56.233c-4.142 0-7.5 3.358-7.5 7.5v56.254c0 4.142 3.358 7.5 7.5 7.5zm7.5-56.254h13.117v6.988c0 4.142 3.358 7.5 7.5 7.5s7.5-3.358 7.5-7.5v-6.988h13.117v41.254h-41.233v-41.254z"/></g></svg>