<svg height="504pt" viewBox="-36 0 504 504.31329" width="504pt" xmlns="http://www.w3.org/2000/svg"><path d="m137.234375 433.898438v-260.339844c.15625-19.238282 15.816406-34.746094 35.058594-34.710938 19.046875-.167968 34.390625-15.667968 34.363281-34.710937v-86.78125h156.203125v86.78125c0 19.167969 15.542969 34.710937 34.714844 34.710937 9.207031-.011718 18.042969 3.640625 24.554687 10.152344 6.515625 6.515625 10.167969 15.351562 10.15625 24.558594v295.050781c0 19.171875-15.542968 34.710937-34.710937 34.710937h-260.339844zm0 0" fill="#f29c1f"/><path d="m189.300781 234.304688h190.917969c9.582031 0 17.355469 7.769531 17.355469 17.355468v104.136719c0 9.585937-7.773438 17.355469-17.355469 17.355469h-190.917969c-9.585937 0-17.355469-7.769532-17.355469-17.355469v-104.136719c0-9.585937 7.769532-17.355468 17.355469-17.355468zm0 0" fill="#f5efca"/><g fill="#7f6e5d"><path d="m224.011719 277.695312h-17.355469c-4.792969 0-8.675781-3.886718-8.675781-8.679687s3.882812-8.675781 8.675781-8.675781h17.355469c4.792969 0 8.679687 3.882812 8.679687 8.675781s-3.886718 8.679687-8.679687 8.679687zm0 0"/><path d="m362.859375 277.695312h-104.132813c-4.792968 0-8.679687-3.886718-8.679687-8.679687s3.886719-8.675781 8.679687-8.675781h104.132813c4.792969 0 8.679687 3.882812 8.679687 8.675781s-3.886718 8.679687-8.679687 8.679687zm0 0"/><path d="m224.011719 347.117188h-17.355469c-4.792969 0-8.675781-3.882813-8.675781-8.675782 0-4.792968 3.882812-8.679687 8.675781-8.679687h17.355469c4.792969 0 8.679687 3.886719 8.679687 8.679687 0 4.792969-3.886718 8.675782-8.679687 8.675782zm0 0"/><path d="m362.859375 347.117188h-104.132813c-4.792968 0-8.679687-3.882813-8.679687-8.675782 0-4.792968 3.886719-8.679687 8.679687-8.679687h104.132813c4.792969 0 8.679687 3.886719 8.679687 8.679687 0 4.792969-3.886718 8.675782-8.679687 8.675782zm0 0"/><path d="m362.859375 312.40625h-17.355469c-4.792968 0-8.675781-3.882812-8.675781-8.675781s3.882813-8.679688 8.675781-8.679688h17.355469c4.792969 0 8.679687 3.886719 8.679687 8.679688s-3.886718 8.675781-8.679687 8.675781zm0 0"/><path d="m310.792969 312.40625h-104.136719c-4.792969 0-8.675781-3.882812-8.675781-8.675781s3.882812-8.679688 8.675781-8.679688h104.136719c4.792969 0 8.679687 3.886719 8.679687 8.679688s-3.886718 8.675781-8.679687 8.675781zm0 0"/></g><path d="m193.398438 0h182.722656c21.433594 0 38.808594 17.375 38.808594 38.808594v45.921875c0 10.71875-8.6875 19.40625-19.40625 19.40625h-221.53125c-10.714844 0-19.402344-8.6875-19.402344-19.40625v-45.921875c0-21.433594 17.375-38.808594 38.808594-38.808594zm0 0" fill="#bdc3c7"/><path d="m154.589844 503.320312h43.390625c15.292969-.007812 28.785156-10.011718 33.234375-24.644531.976562-3.265625 1.472656-6.65625 1.476562-10.066406-.023437-7.078125-2.203125-13.980469-6.25-19.785156-1.128906-1.722657-2.4375-3.324219-3.902344-4.773438-6.53125-6.488281-15.355468-10.136719-24.558593-10.152343h-69.425781v69.421874zm0 0" fill="#c03a2b"/><path d="m137.234375 412.8125c-.007813 7.617188-2.507813 15.023438-7.117187 21.085938l-10.238282 17.355468c-9.546875 0-2.34375 11.109375-8.679687 17.355469-1.472657 1.476563-33.582031 6.941406-34.710938 8.679687l-43.390625-34.710937 14.753906-29.160156 32.367188-27.160157c10.332031-8.664062 24.738281-10.558593 36.957031-4.867187 12.222657 5.691406 20.039063 17.941406 20.058594 31.421875zm0 0" fill="#f0c419"/><path d="m76.488281 468.609375c.003907 3.410156.5 6.800781 1.476563 10.066406l-19.613282 16.488281c-9.40625 8.636719-22.792968 11.417969-34.855468 7.230469-12.0625-4.183593-20.859375-14.652343-22.894532-27.257812-2.035156-12.605469 3.011719-25.3125 13.144532-33.082031l34.105468-28.636719 2.601563 3.125 32.28125 32.28125c-4.042969 5.804687-6.222656 12.707031-6.246094 19.785156zm0 0" fill="#c03a2b"/><path d="m197.980469 78.101562c-4.792969 0-8.679688-3.886718-8.679688-8.679687v-26.03125c0-4.792969 3.886719-8.679687 8.679688-8.679687s8.675781 3.886718 8.675781 8.679687v26.03125c0 4.792969-3.882812 8.679687-8.675781 8.679687zm0 0" fill="#a5a5a4"/><path d="m232.691406 78.101562c-4.792968 0-8.679687-3.886718-8.679687-8.679687v-26.03125c0-4.792969 3.886719-8.679687 8.679687-8.679687 4.792969 0 8.679688 3.886718 8.679688 8.679687v26.03125c0 4.792969-3.886719 8.679687-8.679688 8.679687zm0 0" fill="#a5a5a4"/><path d="m267.402344 78.101562c-4.792969 0-8.675782-3.886718-8.675782-8.679687v-26.03125c0-4.792969 3.882813-8.679687 8.675782-8.679687 4.792968 0 8.679687 3.886718 8.679687 8.679687v26.03125c0 4.792969-3.886719 8.679687-8.679687 8.679687zm0 0" fill="#a5a5a4"/><path d="m302.113281 78.101562c-4.789062 0-8.675781-3.886718-8.675781-8.679687v-26.03125c0-4.792969 3.886719-8.679687 8.675781-8.679687 4.792969 0 8.679688 3.886718 8.679688 8.679687v26.03125c0 4.792969-3.886719 8.679687-8.679688 8.679687zm0 0" fill="#a5a5a4"/><path d="m336.828125 78.101562c-4.792969 0-8.679687-3.886718-8.679687-8.679687v-26.03125c0-4.792969 3.886718-8.679687 8.679687-8.679687s8.675781 3.886718 8.675781 8.679687v26.03125c0 4.792969-3.882812 8.679687-8.675781 8.679687zm0 0" fill="#a5a5a4"/><path d="m371.539062 78.101562c-4.792968 0-8.679687-3.886718-8.679687-8.679687v-26.03125c0-4.792969 3.886719-8.679687 8.679687-8.679687 4.792969 0 8.679688 3.886718 8.679688 8.679687v26.03125c0 4.792969-3.886719 8.679687-8.679688 8.679687zm0 0" fill="#a5a5a4"/><path d="m154.589844 503.320312h-43.390625c-15.292969-.007812-28.785157-10.011718-33.234375-24.644531-.976563-3.265625-1.472656-6.65625-1.476563-10.066406.023438-7.078125 2.203125-13.980469 6.246094-19.785156 1.132813-1.722657 2.441406-3.324219 3.90625-4.773438 6.53125-6.488281 15.355469-10.136719 24.558594-10.152343h43.390625zm0 0" fill="#2fa8cc"/></svg>