<svg id="Capa_1" enable-background="new 0 0 512 512" height="512" viewBox="0 0 512 512" width="512" xmlns="http://www.w3.org/2000/svg"><g><path d="m255.989 240.078v123.845c0 5.523 4.478 10 10 10h171.097c5.522 0 10-4.477 10-10v-123.845c0-5.523-4.478-10-10-10h-171.097c-5.522 0-10 4.477-10 10zm171.097 113.844h-75.983l59.955-103.845h16.029v103.845zm-151.097-103.844h86.697l-59.955 103.845h-26.742z"/><path d="m502 160c5.522 0 10-4.477 10-10v-70c0-5.523-4.478-10-10-10h-166v-16c0-5.523-4.478-10-10-10h-34v-34c0-5.523-4.478-10-10-10h-52c-5.523 0-10 4.477-10 10v34h-34c-5.523 0-10 4.477-10 10v16h-166c-5.523 0-10 4.477-10 10v70c0 5.523 4.477 10 10 10h12v284h-12c-5.523 0-10 4.477-10 10v48c0 5.523 4.477 10 10 10h492c5.522 0 10-4.477 10-10v-48c0-5.523-4.478-10-10-10h-12v-284zm-10-70v50h-200v-24h34c5.522 0 10-4.477 10-10v-16zm-296-26h34c5.523 0 10-4.477 10-10v-34h32v34c0 5.523 4.478 10 10 10h34v32h-34c-5.522 0-10 4.477-10 10v34h-32v-34c0-5.523-4.477-10-10-10h-34zm-176 26h156v16c0 5.523 4.477 10 10 10h34v24h-200zm472 402h-472v-28h472zm-402-134.897h12.966c5.523 0 10-4.477 10-10s-4.477-10-10-10h-12.966v-88h117.989v194.897h-117.989zm380 86.897h-242.011v-204.897c0-5.523-4.477-10-10-10h-137.989c-5.523 0-10 4.477-10 10v204.897h-28v-284h428z"/></g></svg>