<?xml version="1.0" encoding="iso-8859-1"?>
<!-- Generator: Adobe Illustrator 19.0.0, SVG Export Plug-In . SVG Version: 6.00 Build 0)  -->
<svg xmlns="http://www.w3.org/2000/svg" xmlns:xlink="http://www.w3.org/1999/xlink" version="1.1" id="Layer_1" x="0px" y="0px" viewBox="0 0 512 512" style="enable-background:new 0 0 512 512;" xml:space="preserve" width="512" height="512">
<g>
	<path d="M469.55,341.269V90.561c0-21.9-13.215-36.85-33.667-38.087c-0.203-0.012-0.405-0.018-0.608-0.018h-91.3   c2.908-4.255,4.612-9.396,4.612-14.928c0-14.612-11.901-26.5-26.529-26.5h-49.429c-14.628,0-26.529,11.888-26.529,26.5   c0,11.064,6.811,20.564,16.458,24.538v7.87h-36.127v-2.018c0-16.881-13.733-30.614-30.613-30.614   c-16.882,0-30.616,13.733-30.616,30.614v2.018h-35.758v-7.87c9.647-3.974,16.458-13.474,16.458-24.538   C145.901,22.9,134,11,119.373,11H69.943c-10.813,0-20.129,6.505-24.256,15.805H34.102V21.07c0-5.561-4.509-10.07-10.071-10.07   c-5.562,0-10.071,4.509-10.071,10.07v31.61c0,5.562,4.509,10.071,10.071,10.071c5.562,0,10.071-4.509,10.071-10.071v-5.734h11.046   c2.608,6.843,7.969,12.336,14.724,15.119v36.765C24.839,112.722,0,146.946,0,186.865v219.479C0,458.538,42.463,501,94.657,501   c52.195,0,94.66-42.462,94.66-94.656v-15.778h13.425v14.898c0,52.679,42.464,95.536,94.659,95.536   c52.194,0,94.657-42.857,94.657-95.536V314.92c0-5.561-4.509-10.071-10.071-10.071c-5.562,0-10.071,4.509-10.071,10.071v55.504   H222.883V219.749h149.033v14.559c0,5.562,4.509,10.071,10.071,10.071c5.562,0,10.071-4.509,10.071-10.071v-46.592   c0-40.299-24.866-74.848-59.928-88.849V72.597h102.816c9.598,0.689,14.463,6.731,14.463,17.964V341.27   c-24.141,4.711-42.42,26.012-42.42,51.511c0,28.959,23.547,52.52,52.491,52.52c28.96,0,52.521-23.56,52.521-52.52   C512,367.279,493.707,345.978,469.55,341.269z M272.629,31.17h49.429c3.522,0,6.387,2.853,6.387,6.358   c0,3.462-2.925,6.387-6.387,6.387h-49.429c-3.462,0-6.387-2.925-6.387-6.387C266.242,34.022,269.107,31.17,272.629,31.17z    M311.987,64.057v29.287c-4.756-0.746-9.627-1.134-14.587-1.134c-5,0-9.909,0.396-14.701,1.153V64.057H311.987z M185.343,67.918   c0-5.775,4.699-10.473,10.474-10.473c5.774,0,10.472,4.698,10.472,10.473v24.459c0,5.774-4.698,10.472-10.472,10.472   c-5.775,0-10.474-4.698-10.474-10.472V67.918z M69.943,31.142h49.429c3.462,0,6.387,2.925,6.387,6.386   c0,3.462-2.925,6.387-6.387,6.387H69.943c-3.462,0-6.387-2.925-6.387-6.387C63.557,34.066,66.481,31.142,69.943,31.142z    M109.302,81.065v12.277c-4.775-0.745-9.665-1.134-14.645-1.134c-4.979,0-9.869,0.389-14.643,1.133V64.057h29.288v14.889   c-0.037,0.348-0.057,0.702-0.057,1.06C109.245,80.364,109.265,80.717,109.302,81.065z M169.175,406.344   c0,41.087-33.429,74.515-74.518,74.515c-41.088,0-74.515-33.427-74.515-74.515v-15.778h149.033V406.344z M169.175,370.424H20.142   V219.749h149.033V370.424z M169.175,199.607H20.142v-12.742c0-41.087,33.427-74.515,74.515-74.515   c41.089,0,74.518,33.427,74.518,74.515V199.607z M202.741,370.424h-13.425V219.749h13.425V370.424z M371.915,390.566v14.898   c0,41.573-33.428,75.395-74.515,75.395c-41.089,0-74.518-33.822-74.518-75.395v-14.898H371.915z M202.741,187.716v11.891h-13.425   v-12.742c0-39.918-24.839-74.143-59.873-88.034v-8.755h35.758v2.301c0,16.881,13.733,30.614,30.616,30.614   c16.88,0,30.613-13.733,30.613-30.614v-2.301h36.127v8.837C227.554,112.943,202.741,147.46,202.741,187.716z M371.915,187.716   v11.891H222.883v-11.891c0-33.881,22.223-62.604,52.697-72.063c0.02-0.006,0.04-0.011,0.061-0.017   c6.887-2.132,14.192-3.286,21.76-3.286c7.505,0,14.75,1.139,21.587,3.236c0.089,0.028,0.18,0.052,0.27,0.077   C349.712,125.134,371.915,153.849,371.915,187.716z M459.479,425.159c-17.838,0-32.35-14.525-32.35-32.378   c0-17.837,14.512-32.35,32.35-32.35c17.854,0,32.379,14.512,32.379,32.35C491.858,410.634,477.333,425.159,459.479,425.159z"/>
	<path d="M272.23,265.721c-18.132,0-32.884,14.752-32.884,32.884c0,18.148,14.752,32.913,32.884,32.913h49.884   c18.132,0,32.885-14.765,32.885-32.913c0-18.132-14.752-32.884-32.885-32.884H272.23z M334.857,298.605   c0,7.042-5.716,12.771-12.743,12.771H272.23c-7.026,0-12.743-5.729-12.743-12.771c0-7.026,5.717-12.743,12.743-12.743h49.884   C329.141,285.862,334.857,291.579,334.857,298.605z"/>
	<path d="M69.489,327.971h49.883c18.132,0,32.884-14.752,32.884-32.885c0-18.132-14.752-32.884-32.884-32.884H69.489   c-18.148,0-32.913,14.752-32.913,32.884C36.576,313.219,51.341,327.971,69.489,327.971z M69.489,282.343h49.883   c7.026,0,12.743,5.716,12.743,12.743c0,7.027-5.717,12.743-12.743,12.743H69.489c-7.042,0-12.771-5.716-12.771-12.743   C56.718,288.06,62.447,282.343,69.489,282.343z"/>
	<path d="M382.639,264.075c-5.562,0-10.071,4.509-10.071,10.071v0.254c0,5.562,4.509,10.071,10.071,10.071   c5.562,0,10.071-4.509,10.071-10.071v-0.254C392.71,268.585,388.201,264.075,382.639,264.075z"/>
</g>















</svg>
