<?xml version="1.0"?>
<svg xmlns="http://www.w3.org/2000/svg" id="outline" viewBox="0 0 512 512" width="512" height="512"><rect x="248" y="280" width="16" height="16"/><rect x="280" y="280" width="16" height="16"/><rect x="248" y="248" width="16" height="16"/><rect x="280" y="248" width="16" height="16"/><path d="M488,16H400a7.9991,7.9991,0,0,0-2.80908.50977l-64,24a7.99765,7.99765,0,0,0-4.68164,4.68164l-24,64A7.99392,7.99392,0,0,0,304,112v8H264a8.00008,8.00008,0,0,0-8,8v1.37305a46.289,46.289,0,0,1-8.02917,26.1687l-17.13489-16.09644-23.34522-62.2539a8.00123,8.00123,0,0,0-1.834-2.84864l-32-32A8.00035,8.00035,0,0,0,168,40H123.314L106.62744,23.31348A24.9805,24.9805,0,0,0,65.38031,49.18311a24.99708,24.99708,0,0,0-16,32,24.99708,24.99708,0,0,0-16,32A24.96943,24.96943,0,0,0,23.314,154.62793l49.12549,49.126A84.49617,84.49617,0,0,0,119.93408,227.501a67.54419,67.54419,0,0,1,44.55908,26.23828L345.62305,492.83105A8.00137,8.00137,0,0,0,352,496H488a8.00008,8.00008,0,0,0,8-8V392a8.00327,8.00327,0,0,0-2.52246-5.83105L303.47778,207.68457A79.19547,79.19547,0,0,0,335.58105,152H344a8.08533,8.08533,0,0,0,.8833-.04883l72-8a7.99507,7.99507,0,0,0,4.11426-1.7041L458.80615,112H488a8.00008,8.00008,0,0,0,8-8V24A8.00008,8.00008,0,0,0,488,16ZM232,162.4917,248,177.522V224a8.00008,8.00008,0,0,0,8,8h32a8.00008,8.00008,0,0,0,8-8v-1.38721l16,15.03028V312H232ZM280,216H264V192.55225l16,15.03027Zm-157.80322-4.33887a68.3811,68.3811,0,0,1-38.44385-19.22168l-49.12549-49.126A8.97038,8.97038,0,1,1,47.314,130.62793l11.0293,11.0293,11.31348-11.31446-11.0293-11.02929-8-8A8.97038,8.97038,0,1,1,63.314,98.62793l19.0293,19.0293,11.31348-11.31446L74.62744,87.31348l-8-8A8.97038,8.97038,0,1,1,79.314,66.62793l27.0293,27.0293,11.31348-11.31446L90.62744,55.31348l-8-8A8.97038,8.97038,0,1,1,95.314,34.62793l59.0293,59.0293,11.31348-11.31446L139.314,56h25.37256l28.43116,28.43164L216,145.45068v149.781l-38.75342-51.15454A83.44973,83.44973,0,0,0,122.19678,211.66113ZM480,480H355.97607L240.82452,328H320a8.00008,8.00008,0,0,0,8-8V252.67334l152,142.7876ZM291.55328,196.48267l-31.81659-29.88819A61.98075,61.98075,0,0,0,271.65576,136H320v8A62.98348,62.98348,0,0,1,291.55328,196.48267ZM480,96H456a8.00033,8.00033,0,0,0-4.99756,1.75293l-38.18995,30.55176L343.55664,136H336v-2.72461l51.15137-21.92187a8.003,8.003,0,0,0,3.50488-2.916l16-24a8.0001,8.0001,0,0,0-8.2251-12.28223l-40,8a7.99673,7.99673,0,0,0-4.67822,2.84766L324.15479,120H320v-6.5498l22.21387-59.23633L401.45068,32H480ZM354.186,108.07324l10.24023-12.7998,18.2041-3.64063L378.6626,97.584Z"/></svg>
