<?xml version="1.0" encoding="UTF-8" standalone="no"?> <svg id="Layer_1" data-name="Layer 1" xmlns="http://www.w3.org/2000/svg" viewBox="0 0 64 64"><path d="M26.781,44.375A1,1,0,0,0,26,44H21V42a1,1,0,0,0-1-1H6a1,1,0,0,0-1,1v2H7V43H19V53H7V52H5v7a1,1,0,0,0,1,1H9.184a2.982,2.982,0,0,0,5.632,0h6.868a2.982,2.982,0,0,0,5.632,0H30a1,1,0,0,0,1-1V50a1,1,0,0,0-.219-.625ZM25,46h.52l2.4,3H25ZM12,60a1,1,0,1,1,1-1A1,1,0,0,1,12,60Zm12.5,0a1,1,0,1,1,1-1A1,1,0,0,1,24.5,60ZM29,58H27.316a2.982,2.982,0,0,0-5.632,0H14.816a2.982,2.982,0,0,0-5.632,0H7V55H29Zm0-5H21V46h2v4a1,1,0,0,0,1,1h5Z"/><rect x="2" y="45" width="5" height="2"/><rect x="4" y="49" width="5" height="2"/><path d="M54.518,4.457a15.992,15.992,0,0,0-17.032,0,16,16,0,1,0,17.032,0Zm-.744,1.922a14.016,14.016,0,0,1,3.347,3.147,24.064,24.064,0,0,1-3.339.887A19.224,19.224,0,0,0,52.3,6.707C52.813,6.61,53.3,6.5,53.774,6.379ZM52.8,17H47V13.111a43.7,43.7,0,0,0,5.294-.418A25.843,25.843,0,0,1,52.8,17ZM47,11.111V7.23c1.082-.027,2.136-.1,3.153-.208A15.716,15.716,0,0,1,51.8,10.745,42.02,42.02,0,0,1,47,11.111ZM46,4a13.968,13.968,0,0,1,4.954.907c-.139.021-.268.05-.409.069a36.574,36.574,0,0,1-9.084,0c-.144-.02-.273-.049-.414-.07A13.966,13.966,0,0,1,46,4ZM41.847,7.022c1.016.113,2.07.181,3.153.208v3.881a41.985,41.985,0,0,1-4.8-.366A15.737,15.737,0,0,1,41.847,7.022ZM45,13.111V17H39.2a25.713,25.713,0,0,1,.505-4.307A43.647,43.647,0,0,0,45,13.111ZM38.227,6.379c.472.12.96.231,1.474.328a19.134,19.134,0,0,0-1.482,3.706,24.042,24.042,0,0,1-3.34-.887A14.023,14.023,0,0,1,38.227,6.379Zm-4.473,4.85a24.62,24.62,0,0,0,3.981,1.126A27.862,27.862,0,0,0,37.2,17H32.036A13.915,13.915,0,0,1,33.754,11.229Zm0,13.541a13.9,13.9,0,0,1-1.7-5.77H37.2a28.2,28.2,0,0,0,.525,4.642A24.014,24.014,0,0,0,33.754,24.77ZM38.2,29.619a14.117,14.117,0,0,1-3.319-3.147,23.448,23.448,0,0,1,3.333-.883,18.792,18.792,0,0,0,1.485,3.7C39.174,29.384,38.676,29.5,38.2,29.619ZM39.2,19H45v3.889a44.2,44.2,0,0,0-5.289.414A26.2,26.2,0,0,1,39.2,19ZM45,24.889v3.865c-1.086.027-2.146.1-3.159.215a15.622,15.622,0,0,1-1.633-3.712A42.52,42.52,0,0,1,45,24.889ZM46,32a13.882,13.882,0,0,1-4.936-.916,35.483,35.483,0,0,1,9.872,0A13.882,13.882,0,0,1,46,32Zm4.159-3.031c-1.013-.114-2.073-.188-3.159-.215V24.889a42.52,42.52,0,0,1,4.792.368A15.622,15.622,0,0,1,50.159,28.969ZM47,22.889V19h5.8a26.2,26.2,0,0,1-.507,4.3A44.2,44.2,0,0,0,47,22.889Zm6.8,6.73c-.477-.123-.975-.235-1.5-.333a18.792,18.792,0,0,0,1.485-3.7,23.448,23.448,0,0,1,3.333.883A14.117,14.117,0,0,1,53.8,29.619Zm4.445-4.849a24.014,24.014,0,0,0-3.975-1.128A28.2,28.2,0,0,0,54.8,19h5.153A13.9,13.9,0,0,1,58.246,24.77ZM54.8,17a27.887,27.887,0,0,0-.532-4.645,24.534,24.534,0,0,0,3.98-1.126A13.915,13.915,0,0,1,59.964,17Z"/><path d="M50,52H34v2H50a4,4,0,0,0,0-8H41.5a1.5,1.5,0,0,1,0-3H44a3,3,0,0,0,3-3V37H45v3a1,1,0,0,1-1,1H41.5a3.5,3.5,0,0,0,0,7H50a2,2,0,0,1,0,4Z"/></svg>